PathFileType	4	(X/Y/Z)	Patient4_TMGait_0pt4_01_right_38.trc.trc
DataRate	CameraRate	NumFrames	NumMarkers	Units	OrigDataRate	OrigDataStartFrame	OrigNumFrames
78.651685393258	78.651685393258	5	33	mm	78.651685393258	106	       141
Frame#	Time	Sacral			L.Shoulder			Chest			R.Shoulder			Neck			R.ASIS			L.ASIS			R.Thigh.Superior			R.Thigh.Lateral			R.Thigh.Inferior			R.Patella			L.Thigh.Superior			L.Thigh.Lateral			L.Thigh.Inferior			L.Patella			L.Shank.Superior			L.Shank.Lateral			L.Shank.Inferior			R.Shank.Superior			R.Shank.Lateral			R.Shank.Inferior			R.Heel			R.Midfoot.Superior			R.Midfoot.Lateral			R.Toe			L.Heel			L.Midfoot.Lateral			L.Midfoot.Superior			L.Toe			L.Elbow			L.Wrist			R.Elbow			R.Wrist			
		X1	Y1	Z1	X2	Y2	Z2	X3	Y3	Z3	X4	Y4	Z4	X5	Y5	Z5	X6	Y6	Z6	X7	Y7	Z7	X8	Y8	Z8	X9	Y9	Z9	X10	Y10	Z10	X11	Y11	Z11	X12	Y12	Z12	X13	Y13	Z13	X14	Y14	Z14	X15	Y15	Z15	X16	Y16	Z16	X17	Y17	Z17	X18	Y18	Z18	X19	Y19	Z19	X20	Y20	Z20	X21	Y21	Z21	X22	Y22	Z22	X23	Y23	Z23	X24	Y24	Z24	X25	Y25	Z25	X26	Y26	Z26	X27	Y27	Z27	X28	Y28	Z28	X29	Y29	Z29	X30	Y30	Z30	X31	Y31	Z31	X32	Y32	Z32	X33	Y33	Z33	

106	50.935000000000	835.377367503897	1004.263576640671	422.170584466486	1017.544712179498	1431.769141583331	222.002049337945	1115.130314580963	1370.469711554565	388.526424965260	1025.556733679973	1449.372589394789	557.124660429992	1005.871762060272	1499.281508668215	375.298124474487	1066.451497928812	955.379427471271	540.595976639976	1054.393873923974	967.134075709023	266.164039056039	1160.818781265735	792.754632757316	506.173800642223	1136.229892788449	670.936244734750	586.429953459166	1221.789359862844	636.772707931697	500.873406964809	1254.768111876127	533.057065956281	526.008733609728	1102.072920768982	750.310168521023	302.603372942953	1013.213324568305	635.109483351212	241.600345308324	1091.858519060117	556.767411676518	310.192091732925	1088.804446011720	487.745245798549	321.993314198697	1061.229010730312	415.768926327535	312.782516667089	971.265005183403	303.391695315522	259.684383499524	1013.643481630648	191.702371385128	334.638602976422	1197.758869809878	447.038872212442	539.001289839703	1094.322603678098	378.610815223684	605.335087125890	1108.674575379669	268.242409571206	559.566604928267	932.523609376863	160.117140122409	539.139587930416	1109.695040074376	139.249979020345	578.829353726576	1003.719742429519	117.110566431427	613.619076699656	1195.539603340549	42.172298175334	606.037431077293	880.965516960920	38.465740184146	373.328983833843	955.555278945396	35.206532017049	293.293398811644	1038.489379770014	96.419975636629	321.870299163076	1167.636913596990	43.997607521893	293.922247223831	1025.269221563244	1080.872577161294	99.592855212731	1214.992476046237	898.786392735862	103.490136810682	950.458950291343	1117.782179264389	695.575599652898	968.692488964596	861.802088915436	737.832589026809	
107	50.947714285714	835.548795560329	1004.447560111190	420.702962673057	1019.802878086450	1431.963697987855	221.983029011132	1115.851771346732	1370.446577698372	389.309875531787	1024.903439907224	1449.364678539762	557.137026503459	1006.795361656043	1499.362370578280	375.263757546529	1065.893589912569	955.316842395178	540.569992544150	1055.974856620169	967.786999128554	265.773018560810	1159.730692054846	792.316448295949	506.246052615888	1134.676873470158	670.634470508286	586.777517047825	1219.790383161718	636.075900748114	501.063376770698	1253.667356210555	534.449932668857	526.364731516915	1100.913811989358	749.653876939809	302.574261601679	1011.031437465673	635.107267910009	240.895400754225	1088.733994577296	556.063166612663	309.555871764258	1084.991357064518	487.121159246616	321.280471215920	1057.208279654075	415.368191687818	312.130107606669	966.841303104255	303.265904800588	259.006170765880	1008.819499467822	191.484668533407	334.155355679709	1200.583039388822	447.374934697041	539.491553141720	1101.268855354678	373.297494941405	605.775164178047	1121.946494327143	263.954135613687	559.841629711528	952.553162922148	145.290816879303	538.770372988327	1130.592510018422	135.590470693302	579.388997800610	1026.005892374686	106.940611520687	613.666735659457	1222.055368891999	44.068484436562	607.073945341802	875.875049398171	38.500034634036	373.261231743827	950.431390230718	35.145908323767	293.214669613216	1033.424205767898	96.341117291912	321.702920331951	1162.575320017863	43.766861749043	293.900108996840	1028.596235403715	1081.435637688540	98.835105210969	1222.906843577227	904.373723499470	103.489340310572	940.889066372646	1120.617692096450	695.667228833084	952.777483180387	864.745980583503	740.033752978098	
108	50.960428571429	835.769962491517	1004.566003040037	419.394745653353	1022.014505863088	1431.991820778667	222.088931506463	1116.610658813571	1370.304878028557	390.170624153753	1024.388612154427	1449.301480785289	557.240216926060	1007.763569129812	1499.323672135837	375.316811724917	1065.377023138750	955.058642918317	540.734087227927	1057.672151017587	968.484458762944	265.523862806527	1158.255009350073	791.276298323113	506.632576047670	1132.350805931049	669.791227417424	587.322887399215	1217.107953334259	634.735708837052	501.568748767017	1251.752603216356	535.306659604062	526.881048349337	1099.770589820049	748.991278425897	302.583339635887	1008.844902997669	635.094677475755	240.258269739752	1085.630616155138	555.353552785267	308.919453564049	1081.226678536135	486.496618987105	320.537944770412	1053.204547309403	414.953756973651	311.474858775390	962.395973319633	303.154134129461	258.313752506881	1004.003792873892	191.267058098524	333.645482301290	1202.748001384144	447.439000278891	540.103654976690	1107.991686579584	367.828637987677	606.376297226059	1135.041298632948	259.883432763462	560.183820465800	973.175797767900	130.953085073646	538.440645150279	1151.428410917408	132.399125036335	579.867112302977	1048.637674262797	97.379469966269	613.709404704917	1248.170962115613	46.784494093176	608.027207624225	870.788477666298	38.538582544920	373.189916878455	945.307592292393	35.085112806702	293.128897105099	1028.358815345298	96.257784582502	321.522126947657	1157.513481095929	43.528622963847	293.875385716589	1031.909591084066	1081.829404341829	98.257372304881	1230.581286587734	909.836396528502	103.524988409932	931.798208994504	1123.477178659365	695.582138443141	937.885225868514	867.791447201049	741.630553210199	
109	50.973142857143	836.053683774325	1004.613369577425	418.258581834033	1024.151900574640	1431.868901245478	222.327111733387	1117.398666285310	1370.056865249422	391.107370317452	1024.017490663779	1449.183232288649	557.448423653552	1008.761683673353	1499.173760849590	375.471130469620	1064.921698096731	954.622946713242	541.083825989359	1059.406650628722	969.179458755550	265.445662895503	1156.426630050250	789.676405705653	507.326526445697	1129.339400167205	668.458665066176	588.053907350878	1213.847456339330	632.832905708284	502.363127449962	1249.134996683840	535.655121588762	527.505483602378	1098.658177012278	748.319799562514	302.624430899813	1006.668824918533	635.072430130649	239.703460091364	1082.557168616615	554.639393037418	308.306223335667	1077.521199215878	485.873669344370	319.791291000259	1049.230080776545	414.526439585242	310.838835217275	957.942424222598	303.058998553087	257.635823722277	999.200775252410	191.050525137492	333.131513478869	1204.286894325673	447.277391277548	540.781175062559	1114.459486992559	362.364563876551	607.117184545554	1147.755562880357	256.169887180420	560.546270073489	993.995349438575	117.454797678628	538.202819797947	1171.858201492491	129.797308295732	580.183459629688	1071.240497058369	88.653656858398	613.732072632100	1273.479979057874	50.312112520859	608.709925504980	865.702492563645	38.581170083237	373.118657928162	940.184323696958	35.027904510550	293.040022662030	1023.292471215052	96.171437637605	321.337028582140	1152.449563583982	43.290546522888	293.848394639559	1035.218968319143	1082.067297567048	97.867787476697	1238.012086033021	915.154151666250	103.600514850766	923.268953915032	1126.297482690251	695.322964110547	924.047413696888	870.834524201394	742.668641511957	
110	50.985857142857	836.410388560969	1004.583153459065	417.308184842032	1026.191174827057	1431.614395894191	222.703949299994	1118.205827118047	1369.717488739305	392.120773617782	1023.786509350567	1449.010570584675	557.773120237852	1009.772266955531	1498.924306446898	375.740950963655	1064.547415131380	954.033475801974	541.609911578940	1061.076313410267	969.804991006096	265.569785229488	1154.311170245689	787.590988550175	508.309290449945	1125.781855555398	666.711514339008	588.952861063193	1210.149941316647	630.470211019546	503.404317867478	1245.954238786946	535.538117007476	528.185190357722	1097.592363482586	747.636322448534	302.702778518194	1004.521882870801	635.040937835825	239.249256718139	1079.522417519061	553.922617918460	307.747942501534	1073.883225181317	485.254335101413	319.074866080787	1045.297172776766	414.088531647406	310.248898517149	953.497025491066	302.983064639196	257.005240978147	994.415431249656	190.835945811895	332.638629487795	1205.248201971799	446.927600409972	541.469812467675	1120.609708493629	357.048636048255	607.960751175844	1159.858425089171	252.903808525110	560.881892641164	1014.527762301038	105.084763848491	538.087537452646	1191.490114428624	127.834096354589	580.276081570934	1093.355979521951	80.918449808537	613.713584494663	1297.538817810026	54.535679412917	608.972140457521	860.614445405946	38.627728877844	373.050786780690	935.062097515217	34.977649038702	292.952659642092	1018.224848378743	96.083736874060	321.157804794879	1147.381904917166	43.059917646643	293.819837912692	1038.523997635257	1082.165642612317	97.675384258750	1245.189138584816	920.306964543617	103.723726815683	915.378345829341	1129.009667972124	694.900923584491	911.299567229275	873.777856349951	743.199452904979	
